# Rhino

v 2 5 8
v 10 5 8
v 2 15 8
v 10 15 8
v 2 20 3
v 10 20 3
v 2 15 8
v 10 15 8
v 2 0 3
v 10 0 3
v 2 5 8
v 10 5 8
vt 0.49853515625 0
vt 0 0
vt 0.49853515625 0.625
vt 0 0.625
vt 0.99853515625 0.4419417381286621
vt 0.5 0.4419417381286621
vt 0.99853515625 0.8824186325073242
vt 0.5 0.8824186325073242
vt 0.99853515625 0
vt 0.5 0
vt 0.99853515625 0.4404768943786621
vt 0.5 0.4404768943786621
vn 0 0 -1
vn 0 0 -1
vn 0 0 -1
vn 0 0 -1
vn 0 -0.7071067690849304 -0.7071067690849304
vn 0 -0.7071067690849304 -0.7071067690849304
vn 0 -0.7071067690849304 -0.7071067690849304
vn 0 -0.7071067690849304 -0.7071067690849304
vn 0 0.7071067690849304 -0.7071067690849304
vn 0 0.7071067690849304 -0.7071067690849304
vn 0 0.7071067690849304 -0.7071067690849304
vn 0 0.7071067690849304 -0.7071067690849304
f 2/2/2 1/1/1 3/3/3 4/4/4
f 6/6/6 8/8/8 7/7/7 5/5/5
f 10/10/10 9/9/9 11/11/11 12/12/12
v 12 5 8
v 20 5 8
v 12 15 8
v 20 15 8
v 12 20 3
v 20 20 3
v 12 15 8
v 20 15 8
v 12 0 3
v 20 0 3
v 12 5 8
v 20 5 8
vt 0.49853515625 0
vt 0 0
vt 0.49853515625 0.625
vt 0 0.625
vt 0.99853515625 0.4419417381286621
vt 0.5 0.4419417381286621
vt 0.99853515625 0.8824186325073242
vt 0.5 0.8824186325073242
vt 0.99853515625 0
vt 0.5 0
vt 0.99853515625 0.4404768943786621
vt 0.5 0.4404768943786621
vn 0 0 -1
vn 0 0 -1
vn 0 0 -1
vn 0 0 -1
vn 0 -0.7071067690849304 -0.7071067690849304
vn 0 -0.7071067690849304 -0.7071067690849304
vn 0 -0.7071067690849304 -0.7071067690849304
vn 0 -0.7071067690849304 -0.7071067690849304
vn 0 0.7071067690849304 -0.7071067690849304
vn 0 0.7071067690849304 -0.7071067690849304
vn 0 0.7071067690849304 -0.7071067690849304
vn 0 0.7071067690849304 -0.7071067690849304
f 14/14/14 13/13/13 15/15/15 16/16/16
f 18/18/18 20/20/20 19/19/19 17/17/17
f 22/22/22 21/21/21 23/23/23 24/24/24
v 22 5 8
v 30 5 8
v 22 15 8
v 30 15 8
v 22 20 3
v 30 20 3
v 22 15 8
v 30 15 8
v 22 0 3
v 30 0 3
v 22 5 8
v 30 5 8
vt 0.49853515625 0
vt 0 0
vt 0.49853515625 0.625
vt 0 0.625
vt 0.99853515625 0.4419417381286621
vt 0.5 0.4419417381286621
vt 0.99853515625 0.8824186325073242
vt 0.5 0.8824186325073242
vt 0.99853515625 0
vt 0.5 0
vt 0.99853515625 0.4404768943786621
vt 0.5 0.4404768943786621
vn 0 0 -1
vn 0 0 -1
vn 0 0 -1
vn 0 0 -1
vn 0 -0.7071067690849304 -0.7071067690849304
vn 0 -0.7071067690849304 -0.7071067690849304
vn 0 -0.7071067690849304 -0.7071067690849304
vn 0 -0.7071067690849304 -0.7071067690849304
vn 0 0.7071067690849304 -0.7071067690849304
vn 0 0.7071067690849304 -0.7071067690849304
vn 0 0.7071067690849304 -0.7071067690849304
vn 0 0.7071067690849304 -0.7071067690849304
f 26/26/26 25/25/25 27/27/27 28/28/28
f 30/30/30 32/32/32 31/31/31 29/29/29
f 34/34/34 33/33/33 35/35/35 36/36/36
