# Rhino

v 14.91421318054199 -1 5
v 14.91421318054199 -1 5.5
v 16 0.08578643947839737 5
v 16 0.08578643947839737 5.5
v 16 0.08578643947839737 5
v 16 0.08578643947839737 5.5
v 16 4.91421365737915 5
v 16 4.91421365737915 5.5
v 16 4.91421365737915 5
v 16 4.91421365737915 5.5
v 14.91421318054199 6 5
v 14.91421318054199 6 5.5
v 14.91421318054199 6 5
v 14.91421318054199 6 5.5
v 0.08578643947839737 6 5
v 0.08578643947839737 6 5.5
v 0.08578643947839737 6 5
v 0.08578643947839737 6 5.5
v -1 4.91421365737915 5
v -1 4.91421365737915 5.5
v -1 4.91421365737915 5
v -1 4.91421365737915 5.5
v -1 0.08578643947839737 5
v -1 0.08578643947839737 5.5
v -1 0.08578643947839737 5
v -1 0.08578643947839737 5.5
v 0.08578643947839737 -1 5
v 0.08578643947839737 -1 5.5
v 0.08578643947839737 -1 5
v 0.08578643947839737 -1 5.5
v 14.91421318054199 -1 5
v 14.91421318054199 -1 5.5
v 14.91421318054199 -1 5
v 16 0.08578643947839737 5
v 16 4.91421365737915 5
v 14.91421318054199 6 5
v 0.08578643947839737 6 5
v -1 4.91421365737915 5
v -1 0.08578643947839737 5
v 0.08578643947839737 -1 5
v 15 0.5 5
v 14.5 0 5
v 0 4.5 5
v 0.5 5 5
v 14.5 5 5
v 15 4.5 5
v 0.5 0 5
v 0 0.5 5
v 14.91421318054199 -1 5.5
v 16 0.08578643947839737 5.5
v 16 4.91421365737915 5.5
v 14.91421318054199 6 5.5
v 0.08578643947839737 6 5.5
v -1 4.91421365737915 5.5
v -1 0.08578643947839737 5.5
v 0.08578643947839737 -1 5.5
vt 0.4847300350666046 0
vt 0.4847300350666046 0.02851353213191032
vt 0.5708321928977966 0
vt 0.5708321928977966 0.02851353213191032
vt 0.05556222051382065 0
vt 0.02851353213191032 0
vt 0.05556222051382065 0.2753510177135468
vt 0.02851353213191032 0.2753510177135468
vt 0.4847300350666046 0.2423650175333023
vt 0.4847300350666046 0.2708785533905029
vt 0.5708321928977966 0.2423650175333023
vt 0.5708321928977966 0.2708785533905029
vt 0.08407574892044067 0
vt 0.05702706426382065 0
vt 0.08407574892044067 0.845621645450592
vt 0.05702706426382065 0.845621645450592
vt 0.4847300350666046 0.7270950675010681
vt 0.4847300350666046 0.7556085586547852
vt 0.5708321928977966 0.7270950675010681
vt 0.5708321928977966 0.7556085586547852
vt 0.02704868838191032 0
vt 0 0
vt 0.02704868838191032 0.2753510177135468
vt 0 0.2753510177135468
vt 0.4847300350666046 0.4847300350666046
vt 0.4847300350666046 0.513243556022644
vt 0.5708321928977966 0.4847300350666046
vt 0.5708321928977966 0.513243556022644
vt 0.5993457436561584 0
vt 0.5722970366477966 0
vt 0.5993457436561584 0.845621645450592
vt 0.5722970366477966 0.845621645450592
vt 0.99853515625 0.906169593334198
vt 0.9368431568145752 0.9679952263832092
vt 0.6625025272369385 0.9679952263832092
vt 0.6008105874061584 0.906169593334198
vt 0.6008105874061584 0.06182565167546272
vt 0.6625025272369385 0
vt 0.9368431568145752 0
vt 0.99853515625 0.06182565167546272
vt 0.9133084416389465 0.9110543131828308
vt 0.9417173266410828 0.8825838565826416
vt 0.6860372424125671 0.05694089457392693
vt 0.6576283574104309 0.08541134744882584
vt 0.6576283574104309 0.8825838565826416
vt 0.6860372424125671 0.9110543131828308
vt 0.9417173266410828 0.08541134744882584
vt 0.9133084416389465 0.05694089457392693
vt 0.4832651913166046 0.906169593334198
vt 0.4215731918811798 0.9679952263832092
vt 0.1472325772047043 0.9679952263832092
vt 0.08554059267044067 0.906169593334198
vt 0.08554059267044067 0.06182565167546272
vt 0.1472325772047043 0
vt 0.4215731918811798 0
vt 0.4832651913166046 0.06182565167546272
vn 0.7071067690849304 -0.7071067690849304 0
vn 0.7071067690849304 -0.7071067690849304 0
vn 0.7071067690849304 -0.7071067690849304 0
vn 0.7071067690849304 -0.7071067690849304 0
vn 1 0 0
vn 1 0 0
vn 1 0 0
vn 1 0 0
vn 0.7071067690849304 0.7071067690849304 0
vn 0.7071067690849304 0.7071067690849304 0
vn 0.7071067690849304 0.7071067690849304 0
vn 0.7071067690849304 0.7071067690849304 0
vn 0 1 0
vn 0 1 0
vn 0 1 0
vn 0 1 0
vn -0.7071067690849304 0.7071067690849304 0
vn -0.7071067690849304 0.7071067690849304 0
vn -0.7071067690849304 0.7071067690849304 0
vn -0.7071067690849304 0.7071067690849304 0
vn -1 0 0
vn -1 0 0
vn -1 0 0
vn -1 0 0
vn -0.7071067690849304 -0.7071067690849304 0
vn -0.7071067690849304 -0.7071067690849304 0
vn -0.7071067690849304 -0.7071067690849304 0
vn -0.7071067690849304 -0.7071067690849304 0
vn 0 -1 0
vn 0 -1 0
vn 0 -1 0
vn 0 -1 0
vn 0 0 -1
vn 0 0 -1
vn 0 0 -1
vn 0 0 -1
vn 0 0 -1
vn 0 0 -1
vn 0 0 -1
vn 0 0 -1
vn 0 0 -1
vn 0 0 -1
vn 0 0 -1
vn 0 0 -1
vn 0 0 -1
vn 0 0 -1
vn 0 0 -1
vn 0 0 -1
vn 0 0 1
vn 0 0 1
vn 0 0 1
vn 0 0 1
vn 0 0 1
vn 0 0 1
vn 0 0 1
vn 0 0 1
f 2/2/2 1/1/1 3/3/3 4/4/4
f 6/6/6 5/5/5 7/7/7 8/8/8
f 10/10/10 9/9/9 11/11/11 12/12/12
f 14/14/14 13/13/13 15/15/15 16/16/16
f 18/18/18 17/17/17 19/19/19 20/20/20
f 22/22/22 21/21/21 23/23/23 24/24/24
f 26/26/26 25/25/25 27/27/27 28/28/28
f 30/30/30 29/29/29 31/31/31 32/32/32
f 48/48/48 39/39/39 38/38/38 43/43/43
f 47/47/47 39/39/39 48/48/48
f 39/39/39 47/47/47 40/40/40
f 42/42/42 33/33/33 40/40/40 47/47/47
f 44/44/44 43/43/43 38/38/38
f 44/44/44 37/37/37 36/36/36 45/45/45
f 38/38/38 37/37/37 44/44/44
f 34/34/34 33/33/33 42/42/42
f 46/46/46 35/35/35 34/34/34 41/41/41
f 42/42/42 41/41/41 34/34/34
f 35/35/35 45/45/45 36/36/36
f 45/45/45 35/35/35 46/46/46
f 54/54/54 55/55/55 50/50/50 51/51/51
f 54/54/54 52/52/52 53/53/53
f 50/50/50 55/55/55 56/56/56 49/49/49
f 51/51/51 52/52/52 54/54/54
