# Rhino

v 12.5 2 18
v 12.26044940948486 2.029116153717041 17.97088432312012
v 12.04544448852539 2.109281778335571 17.89071846008301
v 11.72821998596191 2.364109992980957 17.63588905334473
v 11.5554838180542 2.671534538269043 17.32846450805664
v 11.5 3 17
v 11.5554838180542 3.328465461730957 16.67153549194336
v 11.72821998596191 3.635890007019043 16.36411094665527
v 12.04544448852539 3.890718221664429 16.10928153991699
v 12.26029491424561 3.970847129821777 16.02915382385254
v 12.5 4 16
v 12.73955059051514 3.970883846282959 16.02911567687988
v 12.95455551147461 3.890718221664429 16.10928153991699
v 13.27178001403809 3.635890007019043 16.36411094665527
v 13.4445161819458 3.328465461730957 16.67153549194336
v 13.5 3 17
v 13.4445161819458 2.671534538269043 17.32846450805664
v 13.27178001403809 2.364109992980957 17.63588905334473
v 12.95455551147461 2.109281778335571 17.89071846008301
v 12.73955059051514 2.029116153717041 17.97088432312012
v 12.5 2 2
v 12.73955059051514 2.029116153717041 2.029116153717041
v 12.95455551147461 2.109281778335571 2.109281778335571
v 13.27178001403809 2.364109992980957 2.364109992980957
v 13.4445161819458 2.671534538269043 2.671534538269043
v 13.5 3 3
v 13.4445161819458 3.328465461730957 3.328465461730957
v 13.27178001403809 3.635890007019043 3.635890007019043
v 12.95455551147461 3.890718221664429 3.890718221664429
v 12.73955059051514 3.970883846282959 3.970883846282959
v 12.5 4 4
v 12.26044940948486 3.970883846282959 3.970883846282959
v 12.04544448852539 3.890718221664429 3.890718221664429
v 11.72821998596191 3.635890007019043 3.635890007019043
v 11.5554838180542 3.328465461730957 3.328465461730957
v 11.5 3 3
v 11.5554838180542 2.671534538269043 2.671534538269043
v 11.72821998596191 2.364109992980957 2.364109992980957
v 12.04544448852539 2.109281778335571 2.109281778335571
v 12.26044940948486 2.029116153717041 2.029116153717041
v 12.5 2 18
v 12.5 2 2
v 12.5 2 2
v 12.26044940948486 2.029116153717041 17.97088432312012
v 12.04544448852539 2.109281778335571 17.89071846008301
v 11.72821998596191 2.364109992980957 17.63588905334473
v 11.5554838180542 2.671534538269043 17.32846450805664
v 11.5 3 17
v 11.5554838180542 3.328465461730957 16.67153549194336
v 11.72821998596191 3.635890007019043 16.36411094665527
v 12.04544448852539 3.890718221664429 16.10928153991699
v 12.26029491424561 3.970847129821777 16.02915382385254
v 12.5 4 16
v 12.73955059051514 3.970883846282959 16.02911567687988
v 12.95455551147461 3.890718221664429 16.10928153991699
v 13.27178001403809 3.635890007019043 16.36411094665527
v 13.4445161819458 3.328465461730957 16.67153549194336
v 13.5 3 17
v 13.4445161819458 2.671534538269043 17.32846450805664
v 13.27178001403809 2.364109992980957 17.63588905334473
v 12.95455551147461 2.109281778335571 17.89071846008301
v 12.73955059051514 2.029116153717041 17.97088432312012
v 12.5 2 18
v 12.73955059051514 2.029116153717041 2.029116153717041
v 12.95455551147461 2.109281778335571 2.109281778335571
v 13.27178001403809 2.364109992980957 2.364109992980957
v 13.4445161819458 2.671534538269043 2.671534538269043
v 13.5 3 3
v 13.4445161819458 3.328465461730957 3.328465461730957
v 13.27178001403809 3.635890007019043 3.635890007019043
v 12.95455551147461 3.890718221664429 3.890718221664429
v 12.73955059051514 3.970883846282959 3.970883846282959
v 12.5 4 4
v 12.26044940948486 3.970883846282959 3.970883846282959
v 12.04544448852539 3.890718221664429 3.890718221664429
v 11.72821998596191 3.635890007019043 3.635890007019043
v 11.5554838180542 3.328465461730957 3.328465461730957
v 11.5 3 3
v 11.5554838180542 2.671534538269043 2.671534538269043
v 11.72821998596191 2.364109992980957 2.364109992980957
v 12.04544448852539 2.109281778335571 2.109281778335571
v 12.26044940948486 2.029116153717041 2.029116153717041
vt 0.001753411022946239 0.5637500286102295
vt 0.004306033719331026 0.5487780570983887
vt 0.01133416499942541 0.5353402495384216
vt 0.03367504477500916 0.5155137777328491
vt 0.0606270432472229 0.5047177672386169
vt 0.08942369371652603 0.5012500286102295
vt 0.1182203441858292 0.5047177672386169
vt 0.1451723426580429 0.5155137777328491
vt 0.1675132215023041 0.5353402495384216
vt 0.1745381355285645 0.5487684607505798
vt 0.1770939826965332 0.5637500286102295
vt 0.1745413541793823 0.5787219405174255
vt 0.1675132215023041 0.5921597480773926
vt 0.1451723426580429 0.6119862198829651
vt 0.1182203441858292 0.6227822303771973
vt 0.08942369371652603 0.6262499690055847
vt 0.0606270432472229 0.6227822303771973
vt 0.03367504477500916 0.6119862198829651
vt 0.01133416499942541 0.5921597480773926
vt 0.004306033719331026 0.5787219405174255
vt 0.1770939826965332 0.0637499988079071
vt 0.1745413541793823 0.07872193306684494
vt 0.1675132215023041 0.09215974062681198
vt 0.1451723426580429 0.1119862347841263
vt 0.1182203441858292 0.1227822527289391
vt 0.08942369371652603 0.1262499988079071
vt 0.0606270432472229 0.1227822527289391
vt 0.03367504477500916 0.1119862347841263
vt 0.01133416499942541 0.09215974062681198
vt 0.004306033719331026 0.07872193306684494
vt 0.001753411022946239 0.0637499988079071
vt 0.004306033719331026 0.04877806454896927
vt 0.01133416499942541 0.03534026071429253
vt 0.03367504477500916 0.01551376283168793
vt 0.0606270432472229 0.004717749543488026
vt 0.08942369371652603 0.001250000088475645
vt 0.1182203441858292 0.004717749543488026
vt 0.1451723426580429 0.01551376283168793
vt 0.1675132215023041 0.03534026071429253
vt 0.1745413541793823 0.04877806454896927
vt 0.1803122311830521 0
vt 0.1803122311830521 0.99853515625
vt 0.5690159201622009 0.99853515625
vt 0.1962151974439621 0.001817096723243594
vt 0.2103595733642578 0.00682010455057025
vt 0.2345489412546158 0.02272354625165462
vt 0.255792111158371 0.04190943017601967
vt 0.2774881720542908 0.062408447265625
vt 0.2991842031478882 0.08290746062994003
vt 0.3204273879528046 0.1020933464169502
vt 0.3446167409420013 0.1179967895150185
vt 0.358751118183136 0.122997485101223
vt 0.3746640980243683 0.12481689453125
vt 0.3905670642852783 0.1229998022317886
vt 0.4047114551067352 0.1179967895150185
vt 0.428900808095932 0.1020933464169502
vt 0.450143963098526 0.08290746062994003
vt 0.4718400239944458 0.062408447265625
vt 0.4935360550880432 0.04190943017601967
vt 0.5147792100906372 0.02272354625165462
vt 0.538968563079834 0.00682010455057025
vt 0.5531129837036133 0.001817096723243594
vt 0.5690159201622009 0
vt 0.5531129837036133 0.9967180490493774
vt 0.538968563079834 0.9917150735855103
vt 0.5147792100906372 0.9758116006851196
vt 0.4935360550880432 0.9566256999969482
vt 0.4718400239944458 0.936126708984375
vt 0.450143963098526 0.9156277179718018
vt 0.428900808095932 0.8964418172836304
vt 0.4047114551067352 0.8805383443832397
vt 0.3905670642852783 0.8755353689193726
vt 0.3746640980243683 0.87371826171875
vt 0.3587611019611359 0.8755353689193726
vt 0.3446167409420013 0.8805383443832397
vt 0.3204273879528046 0.8964418172836304
vt 0.2991842031478882 0.9156277179718018
vt 0.2774881720542908 0.936126708984375
vt 0.255792111158371 0.9566256999969482
vt 0.2345489412546158 0.9758116006851196
vt 0.2103595733642578 0.9917150735855103
vt 0.1962151974439621 0.9967180490493774
vn 0 0.7071067690849304 0.7071067690849304
vn 0 0.7071067690849304 0.7071067690849304
vn 0 0.7071067690849304 0.7071067690849304
vn 0 0.7071067690849304 0.7071067690849304
vn 0 0.7071067690849304 0.7071067690849304
vn 0 0.7071067690849304 0.7071067690849304
vn 0 0.7071067690849304 0.7071067690849304
vn 0 0.7071067690849304 0.7071067690849304
vn 0 0.7071067690849304 0.7071067690849304
vn 0 0.7071067690849304 0.7071067690849304
vn 0 0.7071067690849304 0.7071067690849304
vn 0 0.7071067690849304 0.7071067690849304
vn 0 0.7071067690849304 0.7071067690849304
vn 0 0.7071067690849304 0.7071067690849304
vn 0 0.7071067690849304 0.7071067690849304
vn 0 0.7071067690849304 0.7071067690849304
vn 0 0.7071067690849304 0.7071067690849304
vn 0 0.7071067690849304 0.7071067690849304
vn 0 0.7071067690849304 0.7071067690849304
vn 0 0.7071067690849304 0.7071067690849304
vn 0 0.7071067690849304 -0.7071067690849304
vn 0 0.7071067690849304 -0.7071067690849304
vn 0 0.7071067690849304 -0.7071067690849304
vn 0 0.7071067690849304 -0.7071067690849304
vn 0 0.7071067690849304 -0.7071067690849304
vn 0 0.7071067690849304 -0.7071067690849304
vn 0 0.7071067690849304 -0.7071067690849304
vn 0 0.7071067690849304 -0.7071067690849304
vn 0 0.7071067690849304 -0.7071067690849304
vn 0 0.7071067690849304 -0.7071067690849304
vn 0 0.7071067690849304 -0.7071067690849304
vn 0 0.7071067690849304 -0.7071067690849304
vn 0 0.7071067690849304 -0.7071067690849304
vn 0 0.7071067690849304 -0.7071067690849304
vn 0 0.7071067690849304 -0.7071067690849304
vn 0 0.7071067690849304 -0.7071067690849304
vn 0 0.7071067690849304 -0.7071067690849304
vn 0 0.7071067690849304 -0.7071067690849304
vn 0 0.7071067690849304 -0.7071067690849304
vn 0 0.7071067690849304 -0.7071067690849304
vn -2.466295509306302e-16 -1 0
vn 2.466295509306302e-16 -1 0
vn 2.466295509306302e-16 -1 0
vn -0.239550918340683 -0.9708837866783142 0
vn -0.4545558393001556 -0.8907182216644287 0
vn -0.7717797756195068 -0.6358898878097534 0
vn -0.9445160031318665 -0.3284653723239899 0
vn -1 -1.973036407445041e-15 0
vn -0.9445160031318665 0.3284653723239899 0
vn -0.7717797756195068 0.6358898878097534 0
vn -0.4545558393001556 0.8907182216644287 0
vn -0.2397043108940125 0.9708459377288818 0
vn 0 1 0
vn 0.239550918340683 0.9708837866783142 0
vn 0.4545558393001556 0.8907182216644287 0
vn 0.7717797756195068 0.6358898878097534 0
vn 0.9445160031318665 0.3284653723239899 0
vn 1 -2.959554505288444e-15 0
vn 0.9445160031318665 -0.3284653723239899 0
vn 0.7717797756195068 -0.6358898878097534 0
vn 0.4545558393001556 -0.8907182216644287 0
vn 0.239550918340683 -0.9708837866783142 0
vn -2.466295509306302e-16 -1 0
vn 0.239550918340683 -0.9708837866783142 0
vn 0.4545558393001556 -0.8907182216644287 0
vn 0.7717797756195068 -0.6358898878097534 0
vn 0.9445160031318665 -0.3284653723239899 0
vn 1 2.959554505288444e-15 0
vn 0.9445160031318665 0.3284653723239899 0
vn 0.7717797756195068 0.6358898878097534 0
vn 0.4545558393001556 0.8907182216644287 0
vn 0.239550918340683 0.9708837866783142 0
vn 0 1 0
vn -0.239550918340683 0.9708837866783142 0
vn -0.4545558393001556 0.8907182216644287 0
vn -0.7717797756195068 0.6358898878097534 0
vn -0.9445160031318665 0.3284653723239899 0
vn -1 9.865182037225207e-16 0
vn -0.9445160031318665 -0.3284653723239899 0
vn -0.7717797756195068 -0.6358898878097534 0
vn -0.4545558393001556 -0.8907182216644287 0
vn -0.239550918340683 -0.9708837866783142 0
f 8/8/8 7/7/7 6/6/6
f 11/11/11 10/10/10 9/9/9
f 6/6/6 9/9/9 8/8/8
f 9/9/9 6/6/6 11/11/11
f 4/4/4 6/6/6 5/5/5
f 3/3/3 2/2/2 4/4/4
f 6/6/6 4/4/4 2/2/2
f 1/1/1 6/6/6 2/2/2
f 1/1/1 11/11/11 6/6/6
f 14/14/14 13/13/13 12/12/12
f 16/16/16 15/15/15 14/14/14
f 12/12/12 16/16/16 14/14/14
f 11/11/11 1/1/1 16/16/16
f 20/20/20 16/16/16 1/1/1
f 19/19/19 18/18/18 20/20/20
f 20/20/20 18/18/18 16/16/16
f 18/18/18 17/17/17 16/16/16
f 12/12/12 11/11/11 16/16/16
f 38/38/38 37/37/37 36/36/36
f 38/38/38 21/21/21 40/40/40
f 39/39/39 38/38/38 40/40/40
f 21/21/21 38/38/38 36/36/36
f 34/34/34 36/36/36 35/35/35
f 33/33/33 32/32/32 34/34/34
f 36/36/36 34/34/34 32/32/32
f 32/32/32 21/21/21 36/36/36
f 32/32/32 31/31/31 21/21/21
f 24/24/24 23/23/23 22/22/22
f 26/26/26 25/25/25 24/24/24
f 22/22/22 26/26/26 24/24/24
f 21/21/21 31/31/31 26/26/26
f 30/30/30 26/26/26 31/31/31
f 29/29/29 28/28/28 30/30/30
f 30/30/30 28/28/28 26/26/26
f 28/28/28 27/27/27 26/26/26
f 22/22/22 21/21/21 26/26/26
f 44/44/44 82/82/82 41/41/41
f 46/46/46 80/80/80 45/45/45
f 81/81/81 44/44/44 45/45/45
f 46/46/46 47/47/47 80/80/80
f 48/48/48 79/79/79 47/47/47
f 75/75/75 51/51/51 52/52/52
f 75/75/75 50/50/50 51/51/51
f 49/49/49 78/78/78 48/48/48
f 50/50/50 77/77/77 49/49/49
f 47/47/47 79/79/79 80/80/80
f 82/82/82 44/44/44 81/81/81
f 80/80/80 81/81/81 45/45/45
f 82/82/82 42/42/42 41/41/41
f 75/75/75 52/52/52 74/74/74
f 50/50/50 75/75/75 76/76/76
f 73/73/73 74/74/74 53/53/53
f 77/77/77 78/78/78 49/49/49
f 76/76/76 77/77/77 50/50/50
f 48/48/48 78/78/78 79/79/79
f 53/53/53 74/74/74 52/52/52
f 58/58/58 68/68/68 57/57/57
f 71/71/71 55/55/55 56/56/56
f 72/72/72 54/54/54 55/55/55
f 69/69/69 56/56/56 57/57/57
f 65/65/65 61/61/61 62/62/62
f 61/61/61 66/66/66 60/60/60
f 67/67/67 59/59/59 60/60/60
f 68/68/68 58/58/58 59/59/59 67/67/67
f 64/64/64 62/62/62 63/63/63
f 72/72/72 73/73/73 53/53/53
f 56/56/56 70/70/70 71/71/71
f 69/69/69 70/70/70 56/56/56
f 71/71/71 72/72/72 55/55/55
f 67/67/67 60/60/60 66/66/66
f 65/65/65 62/62/62 64/64/64
f 61/61/61 65/65/65 66/66/66
f 68/68/68 69/69/69 57/57/57
f 43/43/43 64/64/64 63/63/63
f 54/54/54 72/72/72 53/53/53
